<?xml version="1.0" encoding="UTF-8" standalone="no"?><svg xmlns="http://www.w3.org/2000/svg" xmlns:xlink="http://www.w3.org/1999/xlink" contentStyleType="text/css" height="1141px" preserveAspectRatio="none" style="width:1231px;height:1141px;background:#FFFFFF;" version="1.1" viewBox="0 0 1231 1141" width="1231px" zoomAndPan="magnify"><defs/><g><!--MD5=[eaca83e64f5a63cd3b1a9fa157a9d627]
class DockerFile--><g id="elem_DockerFile"><rect codeLine="3" fill="#F1F1F1" height="48" id="DockerFile" rx="2.5" ry="2.5" style="stroke:#181818;stroke-width:0.5;" width="100" x="263" y="116"/><ellipse cx="278" cy="132" fill="#ADD1B2" rx="11" ry="11" style="stroke:#181818;stroke-width:1.0;"/><path d="M280.7656,127.875 Q280.9219,127.6563 281.1094,127.5469 Q281.2969,127.4375 281.5156,127.4375 Q281.8906,127.4375 282.125,127.7031 Q282.3594,127.9531 282.3594,128.5625 L282.3594,130.0156 Q282.3594,130.625 282.125,130.8906 Q281.8906,131.1563 281.5156,131.1563 Q281.1719,131.1563 280.9688,130.9531 Q280.7656,130.7656 280.6563,130.25 Q280.6094,129.8906 280.4219,129.7031 Q280.0938,129.3281 279.4844,129.1094 Q278.875,128.8906 278.25,128.8906 Q277.4844,128.8906 276.8438,129.2188 Q276.2188,129.5469 275.7188,130.2969 Q275.2344,131.0469 275.2344,132.0781 L275.2344,133.1719 Q275.2344,134.4063 276.125,135.2344 Q277.0156,136.0469 278.6094,136.0469 Q279.5469,136.0469 280.2031,135.7969 Q280.5938,135.6406 281.0156,135.2031 Q281.2813,134.9375 281.4219,134.8594 Q281.5781,134.7813 281.7813,134.7813 Q282.1094,134.7813 282.3594,135.0469 Q282.625,135.2969 282.625,135.6406 Q282.625,135.9844 282.2813,136.3906 Q281.7813,136.9688 280.9844,137.2969 Q279.9063,137.75 278.6094,137.75 Q277.0938,137.75 275.8906,137.125 Q274.9063,136.625 274.2188,135.5625 Q273.5313,134.4844 273.5313,133.2031 L273.5313,132.0469 Q273.5313,130.7188 274.1406,129.5781 Q274.7656,128.4219 275.8594,127.8125 Q276.9531,127.1875 278.1875,127.1875 Q278.9219,127.1875 279.5625,127.3594 Q280.2188,127.5156 280.7656,127.875 Z " fill="#000000"/><text fill="#000000" font-family="sans-serif" font-size="14" lengthAdjust="spacing" textLength="68" x="292" y="137.7285">DockerFile</text><line style="stroke:#181818;stroke-width:0.5;" x1="264" x2="362" y1="148" y2="148"/><line style="stroke:#181818;stroke-width:0.5;" x1="264" x2="362" y1="156" y2="156"/></g><!--MD5=[16c6990ddd535d1bcdf845f67bf0a53c]
class FileSystem--><g id="elem_FileSystem"><rect codeLine="7" fill="#F1F1F1" height="48" id="FileSystem" rx="2.5" ry="2.5" style="stroke:#181818;stroke-width:0.5;" width="101" x="716.5" y="834"/><ellipse cx="731.5" cy="850" fill="#ADD1B2" rx="11" ry="11" style="stroke:#181818;stroke-width:1.0;"/><path d="M734.2656,845.875 Q734.4219,845.6563 734.6094,845.5469 Q734.7969,845.4375 735.0156,845.4375 Q735.3906,845.4375 735.625,845.7031 Q735.8594,845.9531 735.8594,846.5625 L735.8594,848.0156 Q735.8594,848.625 735.625,848.8906 Q735.3906,849.1563 735.0156,849.1563 Q734.6719,849.1563 734.4688,848.9531 Q734.2656,848.7656 734.1563,848.25 Q734.1094,847.8906 733.9219,847.7031 Q733.5938,847.3281 732.9844,847.1094 Q732.375,846.8906 731.75,846.8906 Q730.9844,846.8906 730.3438,847.2188 Q729.7188,847.5469 729.2188,848.2969 Q728.7344,849.0469 728.7344,850.0781 L728.7344,851.1719 Q728.7344,852.4063 729.625,853.2344 Q730.5156,854.0469 732.1094,854.0469 Q733.0469,854.0469 733.7031,853.7969 Q734.0938,853.6406 734.5156,853.2031 Q734.7813,852.9375 734.9219,852.8594 Q735.0781,852.7813 735.2813,852.7813 Q735.6094,852.7813 735.8594,853.0469 Q736.125,853.2969 736.125,853.6406 Q736.125,853.9844 735.7813,854.3906 Q735.2813,854.9688 734.4844,855.2969 Q733.4063,855.75 732.1094,855.75 Q730.5938,855.75 729.3906,855.125 Q728.4063,854.625 727.7188,853.5625 Q727.0313,852.4844 727.0313,851.2031 L727.0313,850.0469 Q727.0313,848.7188 727.6406,847.5781 Q728.2656,846.4219 729.3594,845.8125 Q730.4531,845.1875 731.6875,845.1875 Q732.4219,845.1875 733.0625,845.3594 Q733.7188,845.5156 734.2656,845.875 Z " fill="#000000"/><text fill="#000000" font-family="sans-serif" font-size="14" lengthAdjust="spacing" textLength="69" x="745.5" y="855.7285">FileSystem</text><line style="stroke:#181818;stroke-width:0.5;" x1="717.5" x2="816.5" y1="866" y2="866"/><line style="stroke:#181818;stroke-width:0.5;" x1="717.5" x2="816.5" y1="874" y2="874"/></g><!--MD5=[964f074a2dd77d134c21b891bb53e381]
class Image--><g id="elem_Image"><rect codeLine="11" fill="#F1F1F1" height="48" id="Image" rx="2.5" ry="2.5" style="stroke:#181818;stroke-width:0.5;" width="70" x="328" y="582"/><ellipse cx="343" cy="598" fill="#ADD1B2" rx="11" ry="11" style="stroke:#181818;stroke-width:1.0;"/><path d="M345.7656,593.875 Q345.9219,593.6563 346.1094,593.5469 Q346.2969,593.4375 346.5156,593.4375 Q346.8906,593.4375 347.125,593.7031 Q347.3594,593.9531 347.3594,594.5625 L347.3594,596.0156 Q347.3594,596.625 347.125,596.8906 Q346.8906,597.1563 346.5156,597.1563 Q346.1719,597.1563 345.9688,596.9531 Q345.7656,596.7656 345.6563,596.25 Q345.6094,595.8906 345.4219,595.7031 Q345.0938,595.3281 344.4844,595.1094 Q343.875,594.8906 343.25,594.8906 Q342.4844,594.8906 341.8438,595.2188 Q341.2188,595.5469 340.7188,596.2969 Q340.2344,597.0469 340.2344,598.0781 L340.2344,599.1719 Q340.2344,600.4063 341.125,601.2344 Q342.0156,602.0469 343.6094,602.0469 Q344.5469,602.0469 345.2031,601.7969 Q345.5938,601.6406 346.0156,601.2031 Q346.2813,600.9375 346.4219,600.8594 Q346.5781,600.7813 346.7813,600.7813 Q347.1094,600.7813 347.3594,601.0469 Q347.625,601.2969 347.625,601.6406 Q347.625,601.9844 347.2813,602.3906 Q346.7813,602.9688 345.9844,603.2969 Q344.9063,603.75 343.6094,603.75 Q342.0938,603.75 340.8906,603.125 Q339.9063,602.625 339.2188,601.5625 Q338.5313,600.4844 338.5313,599.2031 L338.5313,598.0469 Q338.5313,596.7188 339.1406,595.5781 Q339.7656,594.4219 340.8594,593.8125 Q341.9531,593.1875 343.1875,593.1875 Q343.9219,593.1875 344.5625,593.3594 Q345.2188,593.5156 345.7656,593.875 Z " fill="#000000"/><text fill="#000000" font-family="sans-serif" font-size="14" lengthAdjust="spacing" textLength="38" x="357" y="603.7285">Image</text><line style="stroke:#181818;stroke-width:0.5;" x1="329" x2="397" y1="614" y2="614"/><line style="stroke:#181818;stroke-width:0.5;" x1="329" x2="397" y1="622" y2="622"/></g><!--MD5=[4010c0dabf9196b003913bba1f96c688]
class ImageLayer--><g id="elem_ImageLayer"><rect codeLine="15" fill="#F1F1F1" height="48" id="ImageLayer" rx="2.5" ry="2.5" style="stroke:#181818;stroke-width:0.5;" width="106" x="398" y="456"/><ellipse cx="413" cy="472" fill="#ADD1B2" rx="11" ry="11" style="stroke:#181818;stroke-width:1.0;"/><path d="M415.7656,467.875 Q415.9219,467.6563 416.1094,467.5469 Q416.2969,467.4375 416.5156,467.4375 Q416.8906,467.4375 417.125,467.7031 Q417.3594,467.9531 417.3594,468.5625 L417.3594,470.0156 Q417.3594,470.625 417.125,470.8906 Q416.8906,471.1563 416.5156,471.1563 Q416.1719,471.1563 415.9688,470.9531 Q415.7656,470.7656 415.6563,470.25 Q415.6094,469.8906 415.4219,469.7031 Q415.0938,469.3281 414.4844,469.1094 Q413.875,468.8906 413.25,468.8906 Q412.4844,468.8906 411.8438,469.2188 Q411.2188,469.5469 410.7188,470.2969 Q410.2344,471.0469 410.2344,472.0781 L410.2344,473.1719 Q410.2344,474.4063 411.125,475.2344 Q412.0156,476.0469 413.6094,476.0469 Q414.5469,476.0469 415.2031,475.7969 Q415.5938,475.6406 416.0156,475.2031 Q416.2813,474.9375 416.4219,474.8594 Q416.5781,474.7813 416.7813,474.7813 Q417.1094,474.7813 417.3594,475.0469 Q417.625,475.2969 417.625,475.6406 Q417.625,475.9844 417.2813,476.3906 Q416.7813,476.9688 415.9844,477.2969 Q414.9063,477.75 413.6094,477.75 Q412.0938,477.75 410.8906,477.125 Q409.9063,476.625 409.2188,475.5625 Q408.5313,474.4844 408.5313,473.2031 L408.5313,472.0469 Q408.5313,470.7188 409.1406,469.5781 Q409.7656,468.4219 410.8594,467.8125 Q411.9531,467.1875 413.1875,467.1875 Q413.9219,467.1875 414.5625,467.3594 Q415.2188,467.5156 415.7656,467.875 Z " fill="#000000"/><text fill="#000000" font-family="sans-serif" font-size="14" lengthAdjust="spacing" textLength="74" x="427" y="477.7285">ImageLayer</text><line style="stroke:#181818;stroke-width:0.5;" x1="399" x2="503" y1="488" y2="488"/><line style="stroke:#181818;stroke-width:0.5;" x1="399" x2="503" y1="496" y2="496"/></g><!--MD5=[5a533df27d3906724b98807d4c15445b]
class ImageVersion--><g id="elem_ImageVersion"><rect codeLine="19" fill="#F1F1F1" height="48" id="ImageVersion" rx="2.5" ry="2.5" style="stroke:#181818;stroke-width:0.5;" width="118" x="64" y="834"/><ellipse cx="79" cy="850" fill="#ADD1B2" rx="11" ry="11" style="stroke:#181818;stroke-width:1.0;"/><path d="M81.7656,845.875 Q81.9219,845.6563 82.1094,845.5469 Q82.2969,845.4375 82.5156,845.4375 Q82.8906,845.4375 83.125,845.7031 Q83.3594,845.9531 83.3594,846.5625 L83.3594,848.0156 Q83.3594,848.625 83.125,848.8906 Q82.8906,849.1563 82.5156,849.1563 Q82.1719,849.1563 81.9688,848.9531 Q81.7656,848.7656 81.6563,848.25 Q81.6094,847.8906 81.4219,847.7031 Q81.0938,847.3281 80.4844,847.1094 Q79.875,846.8906 79.25,846.8906 Q78.4844,846.8906 77.8438,847.2188 Q77.2188,847.5469 76.7188,848.2969 Q76.2344,849.0469 76.2344,850.0781 L76.2344,851.1719 Q76.2344,852.4063 77.125,853.2344 Q78.0156,854.0469 79.6094,854.0469 Q80.5469,854.0469 81.2031,853.7969 Q81.5938,853.6406 82.0156,853.2031 Q82.2813,852.9375 82.4219,852.8594 Q82.5781,852.7813 82.7813,852.7813 Q83.1094,852.7813 83.3594,853.0469 Q83.625,853.2969 83.625,853.6406 Q83.625,853.9844 83.2813,854.3906 Q82.7813,854.9688 81.9844,855.2969 Q80.9063,855.75 79.6094,855.75 Q78.0938,855.75 76.8906,855.125 Q75.9063,854.625 75.2188,853.5625 Q74.5313,852.4844 74.5313,851.2031 L74.5313,850.0469 Q74.5313,848.7188 75.1406,847.5781 Q75.7656,846.4219 76.8594,845.8125 Q77.9531,845.1875 79.1875,845.1875 Q79.9219,845.1875 80.5625,845.3594 Q81.2188,845.5156 81.7656,845.875 Z " fill="#000000"/><text fill="#000000" font-family="sans-serif" font-size="14" lengthAdjust="spacing" textLength="86" x="93" y="855.7285">ImageVersion</text><line style="stroke:#181818;stroke-width:0.5;" x1="65" x2="181" y1="866" y2="866"/><line style="stroke:#181818;stroke-width:0.5;" x1="65" x2="181" y1="874" y2="874"/></g><!--MD5=[d2916a7ee5b27489e3b07433472c8893]
class LayerModification--><g id="elem_LayerModification"><rect codeLine="23" fill="#F1F1F1" height="48" id="LayerModification" rx="2.5" ry="2.5" style="stroke:#181818;stroke-width:0.5;" width="143" x="419.5" y="7"/><ellipse cx="434.5" cy="23" fill="#ADD1B2" rx="11" ry="11" style="stroke:#181818;stroke-width:1.0;"/><path d="M437.2656,18.875 Q437.4219,18.6563 437.6094,18.5469 Q437.7969,18.4375 438.0156,18.4375 Q438.3906,18.4375 438.625,18.7031 Q438.8594,18.9531 438.8594,19.5625 L438.8594,21.0156 Q438.8594,21.625 438.625,21.8906 Q438.3906,22.1563 438.0156,22.1563 Q437.6719,22.1563 437.4688,21.9531 Q437.2656,21.7656 437.1563,21.25 Q437.1094,20.8906 436.9219,20.7031 Q436.5938,20.3281 435.9844,20.1094 Q435.375,19.8906 434.75,19.8906 Q433.9844,19.8906 433.3438,20.2188 Q432.7188,20.5469 432.2188,21.2969 Q431.7344,22.0469 431.7344,23.0781 L431.7344,24.1719 Q431.7344,25.4063 432.625,26.2344 Q433.5156,27.0469 435.1094,27.0469 Q436.0469,27.0469 436.7031,26.7969 Q437.0938,26.6406 437.5156,26.2031 Q437.7813,25.9375 437.9219,25.8594 Q438.0781,25.7813 438.2813,25.7813 Q438.6094,25.7813 438.8594,26.0469 Q439.125,26.2969 439.125,26.6406 Q439.125,26.9844 438.7813,27.3906 Q438.2813,27.9688 437.4844,28.2969 Q436.4063,28.75 435.1094,28.75 Q433.5938,28.75 432.3906,28.125 Q431.4063,27.625 430.7188,26.5625 Q430.0313,25.4844 430.0313,24.2031 L430.0313,23.0469 Q430.0313,21.7188 430.6406,20.5781 Q431.2656,19.4219 432.3594,18.8125 Q433.4531,18.1875 434.6875,18.1875 Q435.4219,18.1875 436.0625,18.3594 Q436.7188,18.5156 437.2656,18.875 Z " fill="#000000"/><text fill="#000000" font-family="sans-serif" font-size="14" lengthAdjust="spacing" textLength="111" x="448.5" y="28.7285">LayerModification</text><line style="stroke:#181818;stroke-width:0.5;" x1="420.5" x2="561.5" y1="39" y2="39"/><line style="stroke:#181818;stroke-width:0.5;" x1="420.5" x2="561.5" y1="47" y2="47"/></g><!--MD5=[99ce642fc2b4e1123d74d20c36a45567]
class OperatingSystem--><g id="elem_OperatingSystem"><rect codeLine="27" fill="#F1F1F1" height="48" id="OperatingSystem" rx="2.5" ry="2.5" style="stroke:#181818;stroke-width:0.5;" width="141" x="695.5" y="582"/><ellipse cx="710.5" cy="598" fill="#ADD1B2" rx="11" ry="11" style="stroke:#181818;stroke-width:1.0;"/><path d="M713.2656,593.875 Q713.4219,593.6563 713.6094,593.5469 Q713.7969,593.4375 714.0156,593.4375 Q714.3906,593.4375 714.625,593.7031 Q714.8594,593.9531 714.8594,594.5625 L714.8594,596.0156 Q714.8594,596.625 714.625,596.8906 Q714.3906,597.1563 714.0156,597.1563 Q713.6719,597.1563 713.4688,596.9531 Q713.2656,596.7656 713.1563,596.25 Q713.1094,595.8906 712.9219,595.7031 Q712.5938,595.3281 711.9844,595.1094 Q711.375,594.8906 710.75,594.8906 Q709.9844,594.8906 709.3438,595.2188 Q708.7188,595.5469 708.2188,596.2969 Q707.7344,597.0469 707.7344,598.0781 L707.7344,599.1719 Q707.7344,600.4063 708.625,601.2344 Q709.5156,602.0469 711.1094,602.0469 Q712.0469,602.0469 712.7031,601.7969 Q713.0938,601.6406 713.5156,601.2031 Q713.7813,600.9375 713.9219,600.8594 Q714.0781,600.7813 714.2813,600.7813 Q714.6094,600.7813 714.8594,601.0469 Q715.125,601.2969 715.125,601.6406 Q715.125,601.9844 714.7813,602.3906 Q714.2813,602.9688 713.4844,603.2969 Q712.4063,603.75 711.1094,603.75 Q709.5938,603.75 708.3906,603.125 Q707.4063,602.625 706.7188,601.5625 Q706.0313,600.4844 706.0313,599.2031 L706.0313,598.0469 Q706.0313,596.7188 706.6406,595.5781 Q707.2656,594.4219 708.3594,593.8125 Q709.4531,593.1875 710.6875,593.1875 Q711.4219,593.1875 712.0625,593.3594 Q712.7188,593.5156 713.2656,593.875 Z " fill="#000000"/><text fill="#000000" font-family="sans-serif" font-size="14" lengthAdjust="spacing" textLength="109" x="724.5" y="603.7285">OperatingSystem</text><line style="stroke:#181818;stroke-width:0.5;" x1="696.5" x2="835.5" y1="614" y2="614"/><line style="stroke:#181818;stroke-width:0.5;" x1="696.5" x2="835.5" y1="622" y2="622"/></g><!--MD5=[8eba8bf988c24b0d38781fbb2c77de23]
class PackageVersion--><g id="elem_PackageVersion"><rect codeLine="31" fill="#F1F1F1" height="48" id="PackageVersion" rx="2.5" ry="2.5" style="stroke:#181818;stroke-width:0.5;" width="135" x="342.5" y="834"/><ellipse cx="357.5" cy="850" fill="#ADD1B2" rx="11" ry="11" style="stroke:#181818;stroke-width:1.0;"/><path d="M360.2656,845.875 Q360.4219,845.6563 360.6094,845.5469 Q360.7969,845.4375 361.0156,845.4375 Q361.3906,845.4375 361.625,845.7031 Q361.8594,845.9531 361.8594,846.5625 L361.8594,848.0156 Q361.8594,848.625 361.625,848.8906 Q361.3906,849.1563 361.0156,849.1563 Q360.6719,849.1563 360.4688,848.9531 Q360.2656,848.7656 360.1563,848.25 Q360.1094,847.8906 359.9219,847.7031 Q359.5938,847.3281 358.9844,847.1094 Q358.375,846.8906 357.75,846.8906 Q356.9844,846.8906 356.3438,847.2188 Q355.7188,847.5469 355.2188,848.2969 Q354.7344,849.0469 354.7344,850.0781 L354.7344,851.1719 Q354.7344,852.4063 355.625,853.2344 Q356.5156,854.0469 358.1094,854.0469 Q359.0469,854.0469 359.7031,853.7969 Q360.0938,853.6406 360.5156,853.2031 Q360.7813,852.9375 360.9219,852.8594 Q361.0781,852.7813 361.2813,852.7813 Q361.6094,852.7813 361.8594,853.0469 Q362.125,853.2969 362.125,853.6406 Q362.125,853.9844 361.7813,854.3906 Q361.2813,854.9688 360.4844,855.2969 Q359.4063,855.75 358.1094,855.75 Q356.5938,855.75 355.3906,855.125 Q354.4063,854.625 353.7188,853.5625 Q353.0313,852.4844 353.0313,851.2031 L353.0313,850.0469 Q353.0313,848.7188 353.6406,847.5781 Q354.2656,846.4219 355.3594,845.8125 Q356.4531,845.1875 357.6875,845.1875 Q358.4219,845.1875 359.0625,845.3594 Q359.7188,845.5156 360.2656,845.875 Z " fill="#000000"/><text fill="#000000" font-family="sans-serif" font-size="14" lengthAdjust="spacing" textLength="103" x="371.5" y="855.7285">PackageVersion</text><line style="stroke:#181818;stroke-width:0.5;" x1="343.5" x2="476.5" y1="866" y2="866"/><line style="stroke:#181818;stroke-width:0.5;" x1="343.5" x2="476.5" y1="874" y2="874"/></g><!--MD5=[ff47dd6148a70323e9b043c34f2a8014]
class SecurityRevision--><g id="elem_SecurityRevision"><rect codeLine="35" fill="#F1F1F1" height="48" id="SecurityRevision" rx="2.5" ry="2.5" style="stroke:#181818;stroke-width:0.5;" width="137" x="244.5" y="960"/><ellipse cx="259.5" cy="976" fill="#ADD1B2" rx="11" ry="11" style="stroke:#181818;stroke-width:1.0;"/><path d="M262.2656,971.875 Q262.4219,971.6563 262.6094,971.5469 Q262.7969,971.4375 263.0156,971.4375 Q263.3906,971.4375 263.625,971.7031 Q263.8594,971.9531 263.8594,972.5625 L263.8594,974.0156 Q263.8594,974.625 263.625,974.8906 Q263.3906,975.1563 263.0156,975.1563 Q262.6719,975.1563 262.4688,974.9531 Q262.2656,974.7656 262.1563,974.25 Q262.1094,973.8906 261.9219,973.7031 Q261.5938,973.3281 260.9844,973.1094 Q260.375,972.8906 259.75,972.8906 Q258.9844,972.8906 258.3438,973.2188 Q257.7188,973.5469 257.2188,974.2969 Q256.7344,975.0469 256.7344,976.0781 L256.7344,977.1719 Q256.7344,978.4063 257.625,979.2344 Q258.5156,980.0469 260.1094,980.0469 Q261.0469,980.0469 261.7031,979.7969 Q262.0938,979.6406 262.5156,979.2031 Q262.7813,978.9375 262.9219,978.8594 Q263.0781,978.7813 263.2813,978.7813 Q263.6094,978.7813 263.8594,979.0469 Q264.125,979.2969 264.125,979.6406 Q264.125,979.9844 263.7813,980.3906 Q263.2813,980.9688 262.4844,981.2969 Q261.4063,981.75 260.1094,981.75 Q258.5938,981.75 257.3906,981.125 Q256.4063,980.625 255.7188,979.5625 Q255.0313,978.4844 255.0313,977.2031 L255.0313,976.0469 Q255.0313,974.7188 255.6406,973.5781 Q256.2656,972.4219 257.3594,971.8125 Q258.4531,971.1875 259.6875,971.1875 Q260.4219,971.1875 261.0625,971.3594 Q261.7188,971.5156 262.2656,971.875 Z " fill="#000000"/><text fill="#000000" font-family="sans-serif" font-size="14" lengthAdjust="spacing" textLength="105" x="273.5" y="981.7285">SecurityRevision</text><line style="stroke:#181818;stroke-width:0.5;" x1="245.5" x2="380.5" y1="992" y2="992"/><line style="stroke:#181818;stroke-width:0.5;" x1="245.5" x2="380.5" y1="1000" y2="1000"/></g><!--MD5=[afeb10e7b4d27d810fe3284d6dc9f901]
class SoftwareImage--><g id="elem_SoftwareImage"><rect codeLine="86" fill="#F1F1F1" height="136.0469" id="SoftwareImage" rx="2.5" ry="2.5" style="stroke:#181818;stroke-width:0.5;" width="125" x="250.5" y="242"/><ellipse cx="265.5" cy="258" fill="#ADD1B2" rx="11" ry="11" style="stroke:#181818;stroke-width:1.0;"/><path d="M268.2656,253.875 Q268.4219,253.6563 268.6094,253.5469 Q268.7969,253.4375 269.0156,253.4375 Q269.3906,253.4375 269.625,253.7031 Q269.8594,253.9531 269.8594,254.5625 L269.8594,256.0156 Q269.8594,256.625 269.625,256.8906 Q269.3906,257.1563 269.0156,257.1563 Q268.6719,257.1563 268.4688,256.9531 Q268.2656,256.7656 268.1563,256.25 Q268.1094,255.8906 267.9219,255.7031 Q267.5938,255.3281 266.9844,255.1094 Q266.375,254.8906 265.75,254.8906 Q264.9844,254.8906 264.3438,255.2188 Q263.7188,255.5469 263.2188,256.2969 Q262.7344,257.0469 262.7344,258.0781 L262.7344,259.1719 Q262.7344,260.4063 263.625,261.2344 Q264.5156,262.0469 266.1094,262.0469 Q267.0469,262.0469 267.7031,261.7969 Q268.0938,261.6406 268.5156,261.2031 Q268.7813,260.9375 268.9219,260.8594 Q269.0781,260.7813 269.2813,260.7813 Q269.6094,260.7813 269.8594,261.0469 Q270.125,261.2969 270.125,261.6406 Q270.125,261.9844 269.7813,262.3906 Q269.2813,262.9688 268.4844,263.2969 Q267.4063,263.75 266.1094,263.75 Q264.5938,263.75 263.3906,263.125 Q262.4063,262.625 261.7188,261.5625 Q261.0313,260.4844 261.0313,259.2031 L261.0313,258.0469 Q261.0313,256.7188 261.6406,255.5781 Q262.2656,254.4219 263.3594,253.8125 Q264.4531,253.1875 265.6875,253.1875 Q266.4219,253.1875 267.0625,253.3594 Q267.7188,253.5156 268.2656,253.875 Z " fill="#000000"/><text fill="#000000" font-family="sans-serif" font-size="14" lengthAdjust="spacing" textLength="93" x="279.5" y="263.7285">SoftwareImage</text><line style="stroke:#181818;stroke-width:0.5;" x1="251.5" x2="374.5" y1="274" y2="274"/><text fill="#000000" font-family="sans-serif" font-size="14" lengthAdjust="spacing" textLength="92" x="256.5" y="292.5332">imageIdentifier</text><text fill="#000000" font-family="sans-serif" font-size="14" lengthAdjust="spacing" textLength="4" x="256.5" y="310.1426"> </text><text fill="#000000" font-family="sans-serif" font-size="14" lengthAdjust="spacing" textLength="24" x="256.5" y="327.752">size</text><text fill="#000000" font-family="sans-serif" font-size="14" lengthAdjust="spacing" textLength="4" x="256.5" y="345.3613"> </text><text fill="#000000" font-family="sans-serif" font-size="14" lengthAdjust="spacing" textLength="20" x="256.5" y="362.9707">tag</text><line style="stroke:#181818;stroke-width:0.5;" x1="251.5" x2="374.5" y1="370.0469" y2="370.0469"/></g><!--MD5=[59e1311966f4f878f234b152acdbd3ed]
class SoftwarePackage--><g id="elem_SoftwarePackage"><rect codeLine="43" fill="#F1F1F1" height="48" id="SoftwarePackage" rx="2.5" ry="2.5" style="stroke:#181818;stroke-width:0.5;" width="142" x="825" y="708"/><ellipse cx="840" cy="724" fill="#ADD1B2" rx="11" ry="11" style="stroke:#181818;stroke-width:1.0;"/><path d="M842.7656,719.875 Q842.9219,719.6563 843.1094,719.5469 Q843.2969,719.4375 843.5156,719.4375 Q843.8906,719.4375 844.125,719.7031 Q844.3594,719.9531 844.3594,720.5625 L844.3594,722.0156 Q844.3594,722.625 844.125,722.8906 Q843.8906,723.1563 843.5156,723.1563 Q843.1719,723.1563 842.9688,722.9531 Q842.7656,722.7656 842.6563,722.25 Q842.6094,721.8906 842.4219,721.7031 Q842.0938,721.3281 841.4844,721.1094 Q840.875,720.8906 840.25,720.8906 Q839.4844,720.8906 838.8438,721.2188 Q838.2188,721.5469 837.7188,722.2969 Q837.2344,723.0469 837.2344,724.0781 L837.2344,725.1719 Q837.2344,726.4063 838.125,727.2344 Q839.0156,728.0469 840.6094,728.0469 Q841.5469,728.0469 842.2031,727.7969 Q842.5938,727.6406 843.0156,727.2031 Q843.2813,726.9375 843.4219,726.8594 Q843.5781,726.7813 843.7813,726.7813 Q844.1094,726.7813 844.3594,727.0469 Q844.625,727.2969 844.625,727.6406 Q844.625,727.9844 844.2813,728.3906 Q843.7813,728.9688 842.9844,729.2969 Q841.9063,729.75 840.6094,729.75 Q839.0938,729.75 837.8906,729.125 Q836.9063,728.625 836.2188,727.5625 Q835.5313,726.4844 835.5313,725.2031 L835.5313,724.0469 Q835.5313,722.7188 836.1406,721.5781 Q836.7656,720.4219 837.8594,719.8125 Q838.9531,719.1875 840.1875,719.1875 Q840.9219,719.1875 841.5625,719.3594 Q842.2188,719.5156 842.7656,719.875 Z " fill="#000000"/><text fill="#000000" font-family="sans-serif" font-size="14" lengthAdjust="spacing" textLength="110" x="854" y="729.7285">SoftwarePackage</text><line style="stroke:#181818;stroke-width:0.5;" x1="826" x2="966" y1="740" y2="740"/><line style="stroke:#181818;stroke-width:0.5;" x1="826" x2="966" y1="748" y2="748"/></g><!--MD5=[f83a2f5c2aac2192a6dd81a7dc911705]
class SoftwareVulnerability--><g id="elem_SoftwareVulnerability"><rect codeLine="47" fill="#F1F1F1" height="48" id="SoftwareVulnerability" rx="2.5" ry="2.5" style="stroke:#181818;stroke-width:0.5;" width="164" x="654" y="1086"/><ellipse cx="669" cy="1102" fill="#ADD1B2" rx="11" ry="11" style="stroke:#181818;stroke-width:1.0;"/><path d="M671.7656,1097.875 Q671.9219,1097.6563 672.1094,1097.5469 Q672.2969,1097.4375 672.5156,1097.4375 Q672.8906,1097.4375 673.125,1097.7031 Q673.3594,1097.9531 673.3594,1098.5625 L673.3594,1100.0156 Q673.3594,1100.625 673.125,1100.8906 Q672.8906,1101.1563 672.5156,1101.1563 Q672.1719,1101.1563 671.9688,1100.9531 Q671.7656,1100.7656 671.6563,1100.25 Q671.6094,1099.8906 671.4219,1099.7031 Q671.0938,1099.3281 670.4844,1099.1094 Q669.875,1098.8906 669.25,1098.8906 Q668.4844,1098.8906 667.8438,1099.2188 Q667.2188,1099.5469 666.7188,1100.2969 Q666.2344,1101.0469 666.2344,1102.0781 L666.2344,1103.1719 Q666.2344,1104.4063 667.125,1105.2344 Q668.0156,1106.0469 669.6094,1106.0469 Q670.5469,1106.0469 671.2031,1105.7969 Q671.5938,1105.6406 672.0156,1105.2031 Q672.2813,1104.9375 672.4219,1104.8594 Q672.5781,1104.7813 672.7813,1104.7813 Q673.1094,1104.7813 673.3594,1105.0469 Q673.625,1105.2969 673.625,1105.6406 Q673.625,1105.9844 673.2813,1106.3906 Q672.7813,1106.9688 671.9844,1107.2969 Q670.9063,1107.75 669.6094,1107.75 Q668.0938,1107.75 666.8906,1107.125 Q665.9063,1106.625 665.2188,1105.5625 Q664.5313,1104.4844 664.5313,1103.2031 L664.5313,1102.0469 Q664.5313,1100.7188 665.1406,1099.5781 Q665.7656,1098.4219 666.8594,1097.8125 Q667.9531,1097.1875 669.1875,1097.1875 Q669.9219,1097.1875 670.5625,1097.3594 Q671.2188,1097.5156 671.7656,1097.875 Z " fill="#000000"/><text fill="#000000" font-family="sans-serif" font-size="14" lengthAdjust="spacing" textLength="132" x="683" y="1107.7285">SoftwareVulnerability</text><line style="stroke:#181818;stroke-width:0.5;" x1="655" x2="817" y1="1118" y2="1118"/><line style="stroke:#181818;stroke-width:0.5;" x1="655" x2="817" y1="1126" y2="1126"/></g><!--MD5=[e72638025d12cc62a1ed58e7273898c3]
class imageIdentifier--><g id="elem_imageIdentifier"><rect codeLine="51" fill="#F1F1F1" height="48" id="imageIdentifier" rx="2.5" ry="2.5" style="stroke:#181818;stroke-width:0.5;" width="124" x="14" y="456"/><ellipse cx="29" cy="472" fill="#ADD1B2" rx="11" ry="11" style="stroke:#181818;stroke-width:1.0;"/><path d="M31.7656,467.875 Q31.9219,467.6563 32.1094,467.5469 Q32.2969,467.4375 32.5156,467.4375 Q32.8906,467.4375 33.125,467.7031 Q33.3594,467.9531 33.3594,468.5625 L33.3594,470.0156 Q33.3594,470.625 33.125,470.8906 Q32.8906,471.1563 32.5156,471.1563 Q32.1719,471.1563 31.9688,470.9531 Q31.7656,470.7656 31.6563,470.25 Q31.6094,469.8906 31.4219,469.7031 Q31.0938,469.3281 30.4844,469.1094 Q29.875,468.8906 29.25,468.8906 Q28.4844,468.8906 27.8438,469.2188 Q27.2188,469.5469 26.7188,470.2969 Q26.2344,471.0469 26.2344,472.0781 L26.2344,473.1719 Q26.2344,474.4063 27.125,475.2344 Q28.0156,476.0469 29.6094,476.0469 Q30.5469,476.0469 31.2031,475.7969 Q31.5938,475.6406 32.0156,475.2031 Q32.2813,474.9375 32.4219,474.8594 Q32.5781,474.7813 32.7813,474.7813 Q33.1094,474.7813 33.3594,475.0469 Q33.625,475.2969 33.625,475.6406 Q33.625,475.9844 33.2813,476.3906 Q32.7813,476.9688 31.9844,477.2969 Q30.9063,477.75 29.6094,477.75 Q28.0938,477.75 26.8906,477.125 Q25.9063,476.625 25.2188,475.5625 Q24.5313,474.4844 24.5313,473.2031 L24.5313,472.0469 Q24.5313,470.7188 25.1406,469.5781 Q25.7656,468.4219 26.8594,467.8125 Q27.9531,467.1875 29.1875,467.1875 Q29.9219,467.1875 30.5625,467.3594 Q31.2188,467.5156 31.7656,467.875 Z " fill="#000000"/><text fill="#000000" font-family="sans-serif" font-size="14" lengthAdjust="spacing" textLength="92" x="43" y="477.7285">imageIdentifier</text><line style="stroke:#181818;stroke-width:0.5;" x1="15" x2="137" y1="488" y2="488"/><line style="stroke:#181818;stroke-width:0.5;" x1="15" x2="137" y1="496" y2="496"/></g><!--MD5=[a4cbbd06cd94a1a9f5581d73b55e6981]
class identifier--><g id="elem_identifier"><rect codeLine="55" fill="#F1F1F1" height="48" id="identifier" rx="2.5" ry="2.5" style="stroke:#181818;stroke-width:0.5;" width="86" x="7" y="286"/><ellipse cx="22" cy="302" fill="#ADD1B2" rx="11" ry="11" style="stroke:#181818;stroke-width:1.0;"/><path d="M24.7656,297.875 Q24.9219,297.6563 25.1094,297.5469 Q25.2969,297.4375 25.5156,297.4375 Q25.8906,297.4375 26.125,297.7031 Q26.3594,297.9531 26.3594,298.5625 L26.3594,300.0156 Q26.3594,300.625 26.125,300.8906 Q25.8906,301.1563 25.5156,301.1563 Q25.1719,301.1563 24.9688,300.9531 Q24.7656,300.7656 24.6563,300.25 Q24.6094,299.8906 24.4219,299.7031 Q24.0938,299.3281 23.4844,299.1094 Q22.875,298.8906 22.25,298.8906 Q21.4844,298.8906 20.8438,299.2188 Q20.2188,299.5469 19.7188,300.2969 Q19.2344,301.0469 19.2344,302.0781 L19.2344,303.1719 Q19.2344,304.4063 20.125,305.2344 Q21.0156,306.0469 22.6094,306.0469 Q23.5469,306.0469 24.2031,305.7969 Q24.5938,305.6406 25.0156,305.2031 Q25.2813,304.9375 25.4219,304.8594 Q25.5781,304.7813 25.7813,304.7813 Q26.1094,304.7813 26.3594,305.0469 Q26.625,305.2969 26.625,305.6406 Q26.625,305.9844 26.2813,306.3906 Q25.7813,306.9688 24.9844,307.2969 Q23.9063,307.75 22.6094,307.75 Q21.0938,307.75 19.8906,307.125 Q18.9063,306.625 18.2188,305.5625 Q17.5313,304.4844 17.5313,303.2031 L17.5313,302.0469 Q17.5313,300.7188 18.1406,299.5781 Q18.7656,298.4219 19.8594,297.8125 Q20.9531,297.1875 22.1875,297.1875 Q22.9219,297.1875 23.5625,297.3594 Q24.2188,297.5156 24.7656,297.875 Z " fill="#000000"/><text fill="#000000" font-family="sans-serif" font-size="14" lengthAdjust="spacing" textLength="54" x="36" y="307.7285">identifier</text><line style="stroke:#181818;stroke-width:0.5;" x1="8" x2="92" y1="318" y2="318"/><line style="stroke:#181818;stroke-width:0.5;" x1="8" x2="92" y1="326" y2="326"/></g><!--MD5=[59e7d53e79f68fb69e4da71f0365b346]
class DeploymentScript--><g id="elem_DeploymentScript"><rect codeLine="59" fill="#F1F1F1" height="48" id="DeploymentScript" rx="2.5" ry="2.5" style="stroke:#181818;stroke-width:0.5;" width="143" x="241.5" y="7"/><ellipse cx="256.5" cy="23" fill="#ADD1B2" rx="11" ry="11" style="stroke:#181818;stroke-width:1.0;"/><path d="M259.2656,18.875 Q259.4219,18.6563 259.6094,18.5469 Q259.7969,18.4375 260.0156,18.4375 Q260.3906,18.4375 260.625,18.7031 Q260.8594,18.9531 260.8594,19.5625 L260.8594,21.0156 Q260.8594,21.625 260.625,21.8906 Q260.3906,22.1563 260.0156,22.1563 Q259.6719,22.1563 259.4688,21.9531 Q259.2656,21.7656 259.1563,21.25 Q259.1094,20.8906 258.9219,20.7031 Q258.5938,20.3281 257.9844,20.1094 Q257.375,19.8906 256.75,19.8906 Q255.9844,19.8906 255.3438,20.2188 Q254.7188,20.5469 254.2188,21.2969 Q253.7344,22.0469 253.7344,23.0781 L253.7344,24.1719 Q253.7344,25.4063 254.625,26.2344 Q255.5156,27.0469 257.1094,27.0469 Q258.0469,27.0469 258.7031,26.7969 Q259.0938,26.6406 259.5156,26.2031 Q259.7813,25.9375 259.9219,25.8594 Q260.0781,25.7813 260.2813,25.7813 Q260.6094,25.7813 260.8594,26.0469 Q261.125,26.2969 261.125,26.6406 Q261.125,26.9844 260.7813,27.3906 Q260.2813,27.9688 259.4844,28.2969 Q258.4063,28.75 257.1094,28.75 Q255.5938,28.75 254.3906,28.125 Q253.4063,27.625 252.7188,26.5625 Q252.0313,25.4844 252.0313,24.2031 L252.0313,23.0469 Q252.0313,21.7188 252.6406,20.5781 Q253.2656,19.4219 254.3594,18.8125 Q255.4531,18.1875 256.6875,18.1875 Q257.4219,18.1875 258.0625,18.3594 Q258.7188,18.5156 259.2656,18.875 Z " fill="#000000"/><text fill="#000000" font-family="sans-serif" font-size="14" lengthAdjust="spacing" textLength="111" x="270.5" y="28.7285">DeploymentScript</text><line style="stroke:#181818;stroke-width:0.5;" x1="242.5" x2="383.5" y1="39" y2="39"/><line style="stroke:#181818;stroke-width:0.5;" x1="242.5" x2="383.5" y1="47" y2="47"/></g><!--MD5=[2dc4489441cc99414adf08cb1f4ef064]
class SoftwareComponent--><g id="elem_SoftwareComponent"><rect codeLine="63" fill="#F1F1F1" height="48" id="SoftwareComponent" rx="2.5" ry="2.5" style="stroke:#181818;stroke-width:0.5;" width="160" x="581" y="960"/><ellipse cx="596" cy="976" fill="#ADD1B2" rx="11" ry="11" style="stroke:#181818;stroke-width:1.0;"/><path d="M598.7656,971.875 Q598.9219,971.6563 599.1094,971.5469 Q599.2969,971.4375 599.5156,971.4375 Q599.8906,971.4375 600.125,971.7031 Q600.3594,971.9531 600.3594,972.5625 L600.3594,974.0156 Q600.3594,974.625 600.125,974.8906 Q599.8906,975.1563 599.5156,975.1563 Q599.1719,975.1563 598.9688,974.9531 Q598.7656,974.7656 598.6563,974.25 Q598.6094,973.8906 598.4219,973.7031 Q598.0938,973.3281 597.4844,973.1094 Q596.875,972.8906 596.25,972.8906 Q595.4844,972.8906 594.8438,973.2188 Q594.2188,973.5469 593.7188,974.2969 Q593.2344,975.0469 593.2344,976.0781 L593.2344,977.1719 Q593.2344,978.4063 594.125,979.2344 Q595.0156,980.0469 596.6094,980.0469 Q597.5469,980.0469 598.2031,979.7969 Q598.5938,979.6406 599.0156,979.2031 Q599.2813,978.9375 599.4219,978.8594 Q599.5781,978.7813 599.7813,978.7813 Q600.1094,978.7813 600.3594,979.0469 Q600.625,979.2969 600.625,979.6406 Q600.625,979.9844 600.2813,980.3906 Q599.7813,980.9688 598.9844,981.2969 Q597.9063,981.75 596.6094,981.75 Q595.0938,981.75 593.8906,981.125 Q592.9063,980.625 592.2188,979.5625 Q591.5313,978.4844 591.5313,977.2031 L591.5313,976.0469 Q591.5313,974.7188 592.1406,973.5781 Q592.7656,972.4219 593.8594,971.8125 Q594.9531,971.1875 596.1875,971.1875 Q596.9219,971.1875 597.5625,971.3594 Q598.2188,971.5156 598.7656,971.875 Z " fill="#000000"/><text fill="#000000" font-family="sans-serif" font-size="14" lengthAdjust="spacing" textLength="128" x="610" y="981.7285">SoftwareComponent</text><line style="stroke:#181818;stroke-width:0.5;" x1="582" x2="740" y1="992" y2="992"/><line style="stroke:#181818;stroke-width:0.5;" x1="582" x2="740" y1="1000" y2="1000"/></g><!--MD5=[1db584ee1b8127ea75535273dec2b4f2]
class Version--><g id="elem_Version"><rect codeLine="67" fill="#F1F1F1" height="48" id="Version" rx="2.5" ry="2.5" style="stroke:#181818;stroke-width:0.5;" width="80" x="83" y="708"/><ellipse cx="98" cy="724" fill="#ADD1B2" rx="11" ry="11" style="stroke:#181818;stroke-width:1.0;"/><path d="M100.7656,719.875 Q100.9219,719.6563 101.1094,719.5469 Q101.2969,719.4375 101.5156,719.4375 Q101.8906,719.4375 102.125,719.7031 Q102.3594,719.9531 102.3594,720.5625 L102.3594,722.0156 Q102.3594,722.625 102.125,722.8906 Q101.8906,723.1563 101.5156,723.1563 Q101.1719,723.1563 100.9688,722.9531 Q100.7656,722.7656 100.6563,722.25 Q100.6094,721.8906 100.4219,721.7031 Q100.0938,721.3281 99.4844,721.1094 Q98.875,720.8906 98.25,720.8906 Q97.4844,720.8906 96.8438,721.2188 Q96.2188,721.5469 95.7188,722.2969 Q95.2344,723.0469 95.2344,724.0781 L95.2344,725.1719 Q95.2344,726.4063 96.125,727.2344 Q97.0156,728.0469 98.6094,728.0469 Q99.5469,728.0469 100.2031,727.7969 Q100.5938,727.6406 101.0156,727.2031 Q101.2813,726.9375 101.4219,726.8594 Q101.5781,726.7813 101.7813,726.7813 Q102.1094,726.7813 102.3594,727.0469 Q102.625,727.2969 102.625,727.6406 Q102.625,727.9844 102.2813,728.3906 Q101.7813,728.9688 100.9844,729.2969 Q99.9063,729.75 98.6094,729.75 Q97.0938,729.75 95.8906,729.125 Q94.9063,728.625 94.2188,727.5625 Q93.5313,726.4844 93.5313,725.2031 L93.5313,724.0469 Q93.5313,722.7188 94.1406,721.5781 Q94.7656,720.4219 95.8594,719.8125 Q96.9531,719.1875 98.1875,719.1875 Q98.9219,719.1875 99.5625,719.3594 Q100.2188,719.5156 100.7656,719.875 Z " fill="#000000"/><text fill="#000000" font-family="sans-serif" font-size="14" lengthAdjust="spacing" textLength="48" x="112" y="729.7285">Version</text><line style="stroke:#181818;stroke-width:0.5;" x1="84" x2="162" y1="740" y2="740"/><line style="stroke:#181818;stroke-width:0.5;" x1="84" x2="162" y1="748" y2="748"/></g><!--MD5=[4020f715cf4222b5f61255f3707f3849]
reverse link DeploymentScript to DockerFile--><g id="link_DeploymentScript_DockerFile"><path codeLine="73" d="M313,75.58 C313,89.36 313,104.06 313,115.83 " fill="none" id="DeploymentScript-backto-DockerFile" style="stroke:#181818;stroke-width:1.0;"/><polygon fill="none" points="306,75.22,313,55.22,320,75.22,306,75.22" style="stroke:#181818;stroke-width:1.0;"/></g><!--MD5=[9d0ebf3013c3eb03b7c9cc1286f93983]
reverse link Version to ImageVersion--><g id="link_Version_ImageVersion"><path codeLine="75" d="M123,776.23 C123,795.54 123,817.52 123,833.67 " fill="none" id="Version-backto-ImageVersion" style="stroke:#181818;stroke-width:1.0;"/><polygon fill="none" points="116,776.03,123,756.03,130,776.03,116,776.03" style="stroke:#181818;stroke-width:1.0;"/></g><!--MD5=[18722cd6dd9e508b395e48177c7b7445]
reverse link Version to PackageVersion--><g id="link_Version_PackageVersion"><path codeLine="77" d="M152.92,771.45 C164.02,783.45 177.47,795.7 192,804 C238.16,830.38 297.08,843.69 342.02,850.38 " fill="none" id="Version-backto-PackageVersion" style="stroke:#181818;stroke-width:1.0;"/><polygon fill="none" points="147.52,775.9,139.79,756.17,158.14,766.78,147.52,775.9" style="stroke:#181818;stroke-width:1.0;"/></g><!--MD5=[9455d1c18723bcd14b4dfc5f859a3a80]
reverse link Image to SoftwareImage--><g id="link_Image_SoftwareImage"><path codeLine="79" d="M355.67,561.88 C347.44,513.53 334.01,434.52 324.41,378.08 " fill="none" id="Image-backto-SoftwareImage" style="stroke:#181818;stroke-width:1.0;"/><polygon fill="none" points="362.59,560.86,359.05,581.75,348.79,563.2,362.59,560.86" style="stroke:#181818;stroke-width:1.0;"/></g><!--MD5=[fe9475ea5548b2bceff8b5c1cee17976]
reverse link SoftwareComponent to SoftwarePackage--><g id="link_SoftwareComponent_SoftwarePackage"><path codeLine="81" d="M748.05,952.1 C810.93,924.35 890.31,876.66 923,804 C930.03,788.37 922.96,770.3 914.3,756.31 " fill="none" id="SoftwareComponent-backto-SoftwarePackage" style="stroke:#181818;stroke-width:1.0;"/><polygon fill="none" points="750.7,958.58,729.56,959.91,745.26,945.68,750.7,958.58" style="stroke:#181818;stroke-width:1.0;"/></g><!--MD5=[911580fea2e3401548640efa4a72858e]
reverse link identifier to imageIdentifier--><g id="link_identifier_imageIdentifier"><path codeLine="83" d="M56.64,353.9 C61.65,386.29 68.34,429.5 72.4,455.73 " fill="none" id="identifier-backto-imageIdentifier" style="stroke:#181818;stroke-width:1.0;"/><polygon fill="none" points="49.7,354.84,53.56,334.01,63.54,352.7,49.7,354.84" style="stroke:#181818;stroke-width:1.0;"/></g><!--MD5=[9390df6da5faa030d7031d4788b0fc9e]
link SoftwareVulnerability to OperatingSystem--><g id="link_SoftwareVulnerability_OperatingSystem"><path codeLine="98" d="M818.21,1102.07 C942.78,1089.27 1165,1056.42 1165,985 C1165,731 1165,731 1165,731 C1165,664.08 957.74,629.21 841.97,614.95 " fill="none" id="SoftwareVulnerability-to-OperatingSystem" style="stroke:#181818;stroke-width:1.0;"/><polygon fill="#181818" points="836.87,614.33,845.3098,619.4064,841.832,614.9449,846.2936,611.4672,836.87,614.33" style="stroke:#181818;stroke-width:1.0;"/><text fill="#000000" font-family="sans-serif" font-size="13" lengthAdjust="spacing" textLength="57" x="1166" y="863.4951">affectsOS</text></g><!--MD5=[0dc25c49077855d106c77b86d16621d3]
link OperatingSystem to SoftwareVulnerability--><g id="link_OperatingSystem_SoftwareVulnerability"><path codeLine="126" d="M836.75,611.83 C911.91,621.25 1020,649.05 1020,731 C1020,731 1020,731 1020,985 C1020,1071.86 907.04,1098.48 823.6,1106.3 " fill="none" id="OperatingSystem-to-SoftwareVulnerability" style="stroke:#181818;stroke-width:1.0;"/><polygon fill="#181818" points="818.14,1106.78,827.4594,1109.9657,823.1203,1106.3364,826.7496,1101.9972,818.14,1106.78" style="stroke:#181818;stroke-width:1.0;"/><text fill="#000000" font-family="sans-serif" font-size="13" lengthAdjust="spacing" textLength="73" x="1021" y="863.4951">isAffectedBy</text></g><!--MD5=[ed8493c221af0d5776f97a073160106b]
link DockerFile to SoftwareImage--><g id="link_DockerFile_SoftwareImage"><path codeLine="100" d="M289.85,164.05 C282.7,172.71 275.72,183.1 272,194 C267.23,207.97 268.09,222.84 271.86,237.1 " fill="none" id="DockerFile-to-SoftwareImage" style="stroke:#181818;stroke-width:1.0;"/><polygon fill="#181818" points="273.25,241.91,274.6045,232.1547,271.867,237.1051,266.9166,234.3676,273.25,241.91" style="stroke:#181818;stroke-width:1.0;"/><text fill="#000000" font-family="sans-serif" font-size="13" lengthAdjust="spacing" textLength="34" x="273" y="208.4951">builds</text></g><!--MD5=[ed8493c221af0d5776f97a073160106b]
link DockerFile to SoftwareImage--><g id="link_DockerFile_SoftwareImage"><path codeLine="114" d="M313,164.01 C313,182.79 313,210.41 313,236.52 " fill="none" id="DockerFile-to-SoftwareImage-1" style="stroke:#181818;stroke-width:1.0;"/><polygon fill="#181818" points="313,241.72,317,232.72,313,236.72,309,232.72,313,241.72" style="stroke:#181818;stroke-width:1.0;"/><text fill="#000000" font-family="sans-serif" font-size="13" lengthAdjust="spacing" textLength="56" x="314" y="208.4951">hasImage</text></g><!--MD5=[a85529a668e351511f28114e32b24015]
link SoftwareImage to ImageLayer--><g id="link_SoftwareImage_ImageLayer"><path codeLine="102" d="M368.33,378.36 C389.42,404.04 412.29,431.87 428.61,451.75 " fill="none" id="SoftwareImage-to-ImageLayer" style="stroke:#181818;stroke-width:1.0;"/><polygon fill="#181818" points="431.79,455.61,429.181,446.113,428.6215,451.7421,422.9924,451.1826,431.79,455.61" style="stroke:#181818;stroke-width:1.0;"/><text fill="#000000" font-family="sans-serif" font-size="13" lengthAdjust="spacing" textLength="76" x="407" y="422.4951">composedBy</text></g><!--MD5=[db051c80b9689c73b75f7ce9b71ef9b5]
link SoftwareImage to SoftwarePackage--><g id="link_SoftwareImage_SoftwarePackage"><path codeLine="104" d="M375.84,333.99 C481.06,374.28 696.82,464.62 854,582 C892.04,610.41 909.56,615.84 927,660 C932.73,674.5 926.91,690.42 918.84,703.51 " fill="none" id="SoftwareImage-to-SoftwarePackage" style="stroke:#181818;stroke-width:1.0;"/><polygon fill="#181818" points="916.02,707.83,924.2645,702.4422,918.7339,703.6306,917.5455,698.1,916.02,707.83" style="stroke:#181818;stroke-width:1.0;"/><text fill="#000000" font-family="sans-serif" font-size="13" lengthAdjust="spacing" textLength="92" x="808" y="548.4951">containSoftware</text></g><!--MD5=[075e62af159b705ac92f2d366a3e56ff]
link SoftwarePackage to FileSystem--><g id="link_SoftwarePackage_FileSystem"><path codeLine="106" d="M874.37,756.14 C860.98,770.23 843.3,788.46 827,804 C817.76,812.81 807.42,822.13 797.97,830.45 " fill="none" id="SoftwarePackage-to-FileSystem" style="stroke:#181818;stroke-width:1.0;"/><polygon fill="#181818" points="793.98,833.95,803.3872,831.0338,797.7429,830.6575,798.1192,825.0132,793.98,833.95" style="stroke:#181818;stroke-width:1.0;"/><text fill="#000000" font-family="sans-serif" font-size="13" lengthAdjust="spacing" textLength="69" x="845" y="800.4951">deployedOn</text></g><!--MD5=[7449654afda13310f450a7ce0799bf8f]
link SecurityRevision to PackageVersion--><g id="link_SecurityRevision_PackageVersion"><path codeLine="108" d="M308.54,959.93 C306.94,945.17 307.3,926.2 316,912 C322.74,901 332.66,892.08 343.55,884.93 " fill="none" id="SecurityRevision-to-PackageVersion" style="stroke:#181818;stroke-width:1.0;"/><polygon fill="#181818" points="347.94,882.17,338.1948,883.5952,343.7129,884.8405,342.4676,890.3586,347.94,882.17" style="stroke:#181818;stroke-width:1.0;"/><text fill="#000000" font-family="sans-serif" font-size="13" lengthAdjust="spacing" textLength="108" x="317" y="926.4951">fixPackageVersion</text></g><!--MD5=[066e6e8bdb3956c49ca9ac7d79a0ae6a]
link PackageVersion to SecurityRevision--><g id="link_PackageVersion_SecurityRevision"><path codeLine="118" d="M342.36,870.39 C297.59,879.47 244.67,893.69 231,912 C218.22,929.11 232.86,945 253.14,957.39 " fill="none" id="PackageVersion-to-SecurityRevision" style="stroke:#181818;stroke-width:1.0;"/><polygon fill="#181818" points="257.54,959.98,251.8095,951.9699,253.23,957.4455,247.7543,958.866,257.54,959.98" style="stroke:#181818;stroke-width:1.0;"/><text fill="#000000" font-family="sans-serif" font-size="13" lengthAdjust="spacing" textLength="69" x="232" y="926.4951">hasRevision</text></g><!--MD5=[876cbd648073f0c41d3ab8ab6c310ecb]
link SecurityRevision to SoftwareVulnerability--><g id="link_SecurityRevision_SoftwareVulnerability"><path codeLine="110" d="M315.63,1008.12 C318.72,1024.08 325.43,1044.45 340,1056 C386.37,1092.76 546.84,1104.06 648.71,1107.51 " fill="none" id="SecurityRevision-to-SoftwareVulnerability" style="stroke:#181818;stroke-width:1.0;"/><polygon fill="#181818" points="653.82,1107.68,644.9628,1103.3731,648.823,1107.5082,644.6879,1111.3684,653.82,1107.68" style="stroke:#181818;stroke-width:1.0;"/><text fill="#000000" font-family="sans-serif" font-size="13" lengthAdjust="spacing" textLength="84" x="341" y="1052.4951">fixVulnerability</text></g><!--MD5=[344e04319dddff4385cb962469305474]
link OperatingSystem to FileSystem--><g id="link_OperatingSystem_FileSystem"><path codeLine="112" d="M751.72,630.04 C740.33,649.87 725.27,679.67 719,708 C709.77,749.7 706.84,764.47 723,804 C726.74,813.15 732.66,821.92 738.95,829.6 " fill="none" id="OperatingSystem-to-FileSystem" style="stroke:#181818;stroke-width:1.0;"/><polygon fill="#181818" points="742.47,833.75,739.7085,824.2962,739.2396,829.9336,733.6023,829.4648,742.47,833.75" style="stroke:#181818;stroke-width:1.0;"/><text fill="#000000" font-family="sans-serif" font-size="13" lengthAdjust="spacing" textLength="87" x="720" y="737.4951">hasFileSystem</text></g><!--MD5=[9fdda1e5b4d5835dac0dd7ef43b6675d]
link OperatingSystem to SoftwarePackage--><g id="link_OperatingSystem_SoftwarePackage"><path codeLine="116" d="M790.15,630.03 C812.17,651.04 844.72,682.09 867.9,704.2 " fill="none" id="OperatingSystem-to-SoftwarePackage" style="stroke:#181818;stroke-width:1.0;"/><polygon fill="#181818" points="871.54,707.67,867.8011,698.5584,867.9268,704.2139,862.2713,704.3396,871.54,707.67" style="stroke:#181818;stroke-width:1.0;"/><text fill="#000000" font-family="sans-serif" font-size="13" lengthAdjust="spacing" textLength="79" x="839" y="674.4951">hasPackages</text></g><!--MD5=[da0d86083d31f525b92084b8dbe67183]
link SoftwarePackage to PackageVersion--><g id="link_SoftwarePackage_PackageVersion"><path codeLine="120" d="M835.1,756.05 C793.54,771.17 736.98,790.55 686,804 C617.76,822 538.53,836.58 482.51,845.85 " fill="none" id="SoftwarePackage-to-PackageVersion" style="stroke:#181818;stroke-width:1.0;"/><polygon fill="#181818" points="477.5,846.68,487.0317,849.1594,482.4331,845.865,485.7276,841.2664,477.5,846.68" style="stroke:#181818;stroke-width:1.0;"/><text fill="#000000" font-family="sans-serif" font-size="13" lengthAdjust="spacing" textLength="65" x="745" y="800.4951">hasVersion</text></g><!--MD5=[2a51128bdac071601098a59962b6b5d9]
link PackageVersion to SoftwareVulnerability--><g id="link_PackageVersion_SoftwareVulnerability"><path codeLine="122" d="M418.72,882.04 C434.19,922.69 465.25,1003.34 470,1008 C518.45,1055.5 591.49,1081.1 648.78,1094.63 " fill="none" id="PackageVersion-to-SoftwareVulnerability" style="stroke:#181818;stroke-width:1.0;"/><polygon fill="#181818" points="653.92,1095.82,646.055,1089.892,649.049,1094.6915,644.2494,1097.6855,653.92,1095.82" style="stroke:#181818;stroke-width:1.0;"/><text fill="#000000" font-family="sans-serif" font-size="13" lengthAdjust="spacing" textLength="92" x="471" y="989.4951">hasVulnerability</text></g><!--MD5=[03211547ed5bdb1bf0176ba5acd8a1d4]
link SoftwareImage to imageIdentifier--><g id="link_SoftwareImage_imageIdentifier"><path codeLine="124" d="M250.17,326.9 C204.6,341.31 144.3,366.74 105,408 C93.79,419.76 86.68,436.44 82.31,450.68 " fill="none" id="SoftwareImage-to-imageIdentifier" style="stroke:#181818;stroke-width:1.0;"/><polygon fill="#181818" points="80.82,455.8,87.174,448.2749,82.2162,450.9989,79.4922,446.0411,80.82,455.8" style="stroke:#181818;stroke-width:1.0;"/><text fill="#000000" font-family="sans-serif" font-size="13" lengthAdjust="spacing" textLength="83" x="106" y="422.4951">imageIdentifier</text></g><!--MD5=[8a370365726f61a064ef68a6ca081ed4]
link PackageVersion to SoftwareImage--><g id="link_PackageVersion_SoftwareImage"><path codeLine="128" d="M342.42,843.03 C286.43,827.03 216,794.66 216,733 C216,479 216,479 216,479 C216,444.47 231.56,410.66 250.21,382.52 " fill="none" id="PackageVersion-to-SoftwareImage" style="stroke:#181818;stroke-width:1.0;"/><polygon fill="#181818" points="253.23,378.06,244.8763,383.2768,250.4302,382.2026,251.5044,387.7565,253.23,378.06" style="stroke:#181818;stroke-width:1.0;"/><text fill="#000000" font-family="sans-serif" font-size="13" lengthAdjust="spacing" textLength="75" x="217" y="611.4951">isInstalledOn</text></g><!--MD5=[ad2077fb2c3a01934e2b8b6c079b5f82]
link ImageLayer to Image--><g id="link_ImageLayer_Image"><path codeLine="130" d="M398.45,504.19 C386.53,511.94 375.25,521.8 368,534 C360.53,546.56 358.9,562.68 359.3,576.38 " fill="none" id="ImageLayer-to-Image" style="stroke:#181818;stroke-width:1.0;"/><polygon fill="#181818" points="359.56,581.69,363.1174,572.506,359.3167,576.6959,355.1269,572.8953,359.56,581.69" style="stroke:#181818;stroke-width:1.0;"/><text fill="#000000" font-family="sans-serif" font-size="13" lengthAdjust="spacing" textLength="55" x="369" y="548.4951">isLayerOf</text></g><!--MD5=[69040fa5d84bbecba0a7f36333037f6f]
link ImageLayer to PackageVersion--><g id="link_ImageLayer_PackageVersion"><path codeLine="132" d="M464.94,504.21 C469.65,513.2 474.37,523.78 477,534 C492.96,596.04 494.37,614.96 483,678 C472.82,734.42 443.72,795.25 425.48,829.48 " fill="none" id="ImageLayer-to-PackageVersion" style="stroke:#181818;stroke-width:1.0;"/><polygon fill="#181818" points="423.1,833.93,430.8911,827.9052,425.4722,829.5286,423.8488,824.1096,423.1,833.93" style="stroke:#181818;stroke-width:1.0;"/><text fill="#000000" font-family="sans-serif" font-size="13" lengthAdjust="spacing" textLength="74" x="487" y="674.4951">isModifiedBy</text></g><!--MD5=[6c848fa3ed8c96a7c691c0e0921a830b]
link PackageVersion to ImageLayer--><g id="link_PackageVersion_ImageLayer"><path codeLine="138" d="M405.67,833.95 C399.47,796.86 390.18,721.83 403,660 C405.95,645.77 411.43,643.79 416,630 C429.66,588.75 440.15,539.39 445.95,509.13 " fill="none" id="PackageVersion-to-ImageLayer" style="stroke:#181818;stroke-width:1.0;"/><polygon fill="#181818" points="446.91,504.07,441.3042,512.1679,445.979,508.9826,449.1643,513.6574,446.91,504.07" style="stroke:#181818;stroke-width:1.0;"/><text fill="#000000" font-family="sans-serif" font-size="13" lengthAdjust="spacing" textLength="70" x="404" y="674.4951">modifyLayer</text></g><!--MD5=[be93ef5807dd338b3d7388a294741335]
link SoftwareComponent to OperatingSystem--><g id="link_SoftwareComponent_OperatingSystem"><path codeLine="134" d="M651,959.72 C636.37,922.31 612.86,846.84 632,786 C651.54,723.91 702.97,666.36 736.14,634.04 " fill="none" id="SoftwareComponent-to-OperatingSystem" style="stroke:#181818;stroke-width:1.0;"/><polygon fill="#181818" points="740.09,630.23,730.8349,633.5978,736.4908,633.7007,736.3879,639.3566,740.09,630.23" style="stroke:#181818;stroke-width:1.0;"/><text fill="#000000" font-family="sans-serif" font-size="13" lengthAdjust="spacing" textLength="74" x="633" y="800.4951">isPackageOf</text></g><!--MD5=[a7a6ce8adaae9f4bd04380791c93ca48]
link PackageVersion to SoftwareComponent--><g id="link_PackageVersion_SoftwareComponent"><path codeLine="136" d="M436.97,882.18 C455.66,897.35 481.66,916.76 507,930 C528.52,941.25 552.94,950.92 575.88,958.8 " fill="none" id="PackageVersion-to-SoftwareComponent" style="stroke:#181818;stroke-width:1.0;"/><polygon fill="#181818" points="580.76,960.45,573.5169,953.7764,576.0238,958.8474,570.9527,961.3543,580.76,960.45" style="stroke:#181818;stroke-width:1.0;"/><text fill="#000000" font-family="sans-serif" font-size="13" lengthAdjust="spacing" textLength="67" x="508" y="926.4951">isVersionOf</text></g><!--MD5=[1aa7f63d6deb2023cd8060dc263486ab]
link ImageLayer to OperatingSystem--><g id="link_ImageLayer_OperatingSystem"><path codeLine="140" d="M504.08,501.89 C558.82,523.44 644.2,557.05 702.49,580 " fill="none" id="ImageLayer-to-OperatingSystem" style="stroke:#181818;stroke-width:1.0;"/><polygon fill="#181818" points="707.34,581.91,700.4245,574.8974,702.6859,580.0826,697.5007,582.344,707.34,581.91" style="stroke:#181818;stroke-width:1.0;"/><text fill="#000000" font-family="sans-serif" font-size="13" lengthAdjust="spacing" textLength="47" x="628" y="548.4951">usesOS</text></g><!--MD5=[889a43616a85bfa96f3efc2e92c746da]
@startuml


class "DockerFile" {

}

class "FileSystem" {

}

class "Image" {

}

class "ImageLayer" {

}

class "ImageVersion" {

}

class "LayerModification" {

}

class "OperatingSystem" {

}

class "PackageVersion" {

}

class "SecurityRevision" {

}

class "SoftwareImage" {

}

class "SoftwarePackage" {

}

class "SoftwareVulnerability" {

}

class "imageIdentifier" {

}

class "identifier" {

}

class "DeploymentScript" {

}

class "SoftwareComponent" {

}

class "Version" {

}



"DeploymentScript" <|- - "DockerFile" 

"Version" <|- - "ImageVersion" 

"Version" <|- - "PackageVersion" 

"Image" <|- - "SoftwareImage" 

"SoftwareComponent" <|- - "SoftwarePackage" 

"identifier" <|- - "imageIdentifier" 


class "SoftwareImage"  {


    imageIdentifier  
 
    size  
 
    tag  
 
} 


SoftwareVulnerability  - -> OperatingSystem   :affectsOS  

DockerFile  - -> SoftwareImage   :builds  

SoftwareImage  - -> ImageLayer   :composedBy  

SoftwareImage  - -> SoftwarePackage   :containSoftware  

SoftwarePackage  - -> FileSystem   :deployedOn  

SecurityRevision  - -> PackageVersion   :fixPackageVersion  

SecurityRevision  - -> SoftwareVulnerability   :fixVulnerability  

OperatingSystem  - -> FileSystem   :hasFileSystem  

DockerFile  - -> SoftwareImage   :hasImage  

OperatingSystem  - -> SoftwarePackage   :hasPackages  

PackageVersion  - -> SecurityRevision   :hasRevision  

SoftwarePackage  - -> PackageVersion   :hasVersion  

PackageVersion  - -> SoftwareVulnerability   :hasVulnerability  

SoftwareImage  - -> imageIdentifier   :imageIdentifier  

OperatingSystem  - -> SoftwareVulnerability   :isAffectedBy  

PackageVersion  - -> SoftwareImage   :isInstalledOn  

ImageLayer  - -> Image   :isLayerOf  

ImageLayer  - -> PackageVersion   :isModifiedBy  

SoftwareComponent  - -> OperatingSystem   :isPackageOf  

PackageVersion  - -> SoftwareComponent   :isVersionOf  

PackageVersion  - -> ImageLayer   :modifyLayer  

ImageLayer  - -> OperatingSystem   :usesOS  

@enduml

PlantUML version 1.2022.2(Sat Mar 05 17:30:19 CET 2022)
(APACHE source distribution)
Java Runtime: Java(TM) SE Runtime Environment
JVM: Java HotSpot(TM) 64-Bit Server VM
Default Encoding: Cp1252
Language: es
Country: ES
--></g></svg>